# xmcd
#
# Track frame offsets: 
#        150
#        15725
#        50088
#        83528
#        100660
#        125395
#        140025
#        161564
#        184764
#        207505
#        221416
#
# Disc length: 3153 seconds
#
# Revision: 7
# Processed by: cddbd v1.5.2PL0 Copyright (c) Steve Scherf et al.
# Submitted via: ExactAudioCopy v1.0b3
#
DISCID=970c4f0b
DTITLE=The Legendary Blues Singers - Play Me The Blues...
DYEAR=2001
DGENRE=Blues
TTITLE0=B.B. King - Introduction
TTITLE1=B.B. King - Outside Help
TTITLE2=B.B. King - Ain't Nobody
TTITLE3=B.B. King - Guess Who
TTITLE4=B.B. King - I've Got A Mind To Give Up Living
TTITLE5=B.B. King - King's Shuffle
TTITLE6=B.B. King - Nobody Loves Me But My Mother
TTITLE7=B.B. King - Sweet Little Angel
TTITLE8=B.B. King - The Thrill Is Gone
TTITLE9=B.B. King - Jesus Gave Me Water
TTITLE10=B.B. King - Precious Lord
EXTD=
EXTT0=
EXTT1=
EXTT2=
EXTT3=
EXTT4=
EXTT5=
EXTT6=
EXTT7=
EXTT8=
EXTT9=
EXTT10=
PLAYORDER=
